<?xml version="1.0" encoding="utf-8"?>
<!-- Generator: Adobe Illustrator 16.0.0, SVG Export Plug-In . SVG Version: 6.00 Build 0)  -->
<!DOCTYPE svg PUBLIC "-//W3C//DTD SVG 1.1//EN" "http://www.w3.org/Graphics/SVG/1.1/DTD/svg11.dtd">
<svg version="1.1" id="Layer_1" xmlns="http://www.w3.org/2000/svg" xmlns:xlink="http://www.w3.org/1999/xlink" x="0px" y="0px"
	 width="24px" height="24px" viewBox="0 0 24 24" enable-background="new 0 0 24 24" xml:space="preserve">
<g>
	<path fill="#FFFFFF" d="M20.207,6.793l-4-4C16.02,2.605,15.766,2.5,15.5,2.5h-8c-1.654,0-3,1.346-3,3v12c0,1.654,1.346,3,3,3h10
		c1.654,0,3-1.346,3-3v-10C20.5,7.234,20.395,6.98,20.207,6.793z M15.5,4.914L18.086,7.5H17c-0.827,0-1.5-0.673-1.5-1.5V4.914z
		 M18.5,17.5c0,0.552-0.448,1-1,1h-10c-0.552,0-1-0.448-1-1v-12c0-0.552,0.448-1,1-1h7V6c0,1.379,1.121,2.5,2.5,2.5h1.5V17.5z"/>
	<circle fill="#FFFFFF" cx="12.5" cy="10" r="2"/>
	<path fill="#FFFFFF" d="M12.5,12.855c-1.562,0-2.5,0.715-2.5,1.43C10,14.643,10.938,15,12.5,15c1.466,0,2.5-0.357,2.5-0.715
		C15,13.57,14.02,12.855,12.5,12.855z"/>
</g>
</svg>
