<?xml version="1.0" encoding="utf-8"?>
<!-- Generator: Adobe Illustrator 16.0.0, SVG Export Plug-In . SVG Version: 6.00 Build 0)  -->
<!DOCTYPE svg PUBLIC "-//W3C//DTD SVG 1.1//EN" "http://www.w3.org/Graphics/SVG/1.1/DTD/svg11.dtd">
<svg version="1.1" id="Layer_1" xmlns="http://www.w3.org/2000/svg" xmlns:xlink="http://www.w3.org/1999/xlink" x="0px" y="0px"
	 width="48px" height="48px" viewBox="0 0 48 48" enable-background="new 0 0 48 48" xml:space="preserve">
<path fill="none" stroke="#10BBF1" stroke-width="2" stroke-linecap="round" stroke-linejoin="round" stroke-miterlimit="10" d="
	M20.498,38.247c0-3.843-3.976-6.701-3.976-6.701s5.308-8.213,7.242-14.528"/>
<path fill="none" stroke="#10BBF1" stroke-width="2" stroke-linecap="round" stroke-linejoin="round" stroke-miterlimit="10" d="
	M23.764,17.018C25.623,23.105,31,31.546,31,31.546s-3.619,2.804-3.619,6.701"/>
<line fill="none" stroke="#10BBF1" stroke-linecap="round" stroke-linejoin="round" stroke-miterlimit="10" x1="20.514" y1="38.247" x2="27.373" y2="38.247"/>
<rect x="36.501" y="27.072" fill="none" stroke="#10BBF1" stroke-width="1.5" stroke-linecap="round" stroke-linejoin="round" stroke-miterlimit="10" width="3.998" height="3.999"/>
<path fill="none" stroke="#10BBF1" stroke-linecap="round" stroke-linejoin="round" stroke-miterlimit="10" d="M25.979,13.519h16.96
	"/>
<circle fill="none" stroke="#10BBF1" stroke-width="2" stroke-linecap="round" stroke-linejoin="round" stroke-miterlimit="10" cx="43.971" cy="13.519" r="1.03"/>
<rect x="7" y="27.073" fill="none" stroke="#10BBF1" stroke-width="1.5" stroke-linecap="round" stroke-linejoin="round" stroke-miterlimit="10" width="4" height="3.996"/>
<path fill="none" stroke="#10BBF1" stroke-linecap="round" stroke-linejoin="round" stroke-miterlimit="10" d="M4.556,13.519h17.228
	"/>
<circle fill="none" stroke="#10BBF1" stroke-width="2" stroke-linecap="round" stroke-linejoin="round" stroke-miterlimit="10" cx="3.525" cy="13.518" r="1.03"/>
<polygon fill="none" stroke="#10BBF1" stroke-width="1.5" stroke-linecap="round" stroke-linejoin="round" stroke-miterlimit="10" points="
	25.784,15.524 21.784,15.559 21.817,11.557 25.751,11.592 "/>
<line fill="none" stroke="#10BBF1" stroke-linecap="round" stroke-linejoin="round" stroke-miterlimit="10" x1="23.764" y1="30.512" x2="23.764" y2="17.018"/>
<polyline fill="none" stroke="#10BBF1" stroke-width="2" stroke-linecap="round" stroke-linejoin="round" stroke-miterlimit="10" points="
	27.373,38.247 27.373,41.861 20.514,41.861 20.514,38.247 "/>
<path fill="none" stroke="#10BBF1" stroke-width="1.5" stroke-linecap="round" stroke-linejoin="round" stroke-miterlimit="10" d="
	M21.784,13.646c-6.769,0.892-12.108,6.322-12.858,13.133"/>
<path fill="none" stroke="#10BBF1" stroke-width="1.5" stroke-linecap="round" stroke-linejoin="round" stroke-miterlimit="10" d="
	M38.568,26.719c-0.775-6.766-6.076-12.156-12.801-13.066"/>
</svg>
