<?xml version="1.0" encoding="utf-8"?>
<!-- Generator: Adobe Illustrator 19.0.0, SVG Export Plug-In . SVG Version: 6.00 Build 0)  -->
<svg version="1.1" id="Layer_1" xmlns="http://www.w3.org/2000/svg" xmlns:xlink="http://www.w3.org/1999/xlink" x="0px" y="0px"
	 viewBox="-469 471 60 60" style="enable-background:new -469 471 60 60;" xml:space="preserve">
<style type="text/css">
	.st0{fill:#005CFF;}
</style>
<g>
	<path class="st0" d="M-444.9,498.9c0,0,5.6-0.4,5.6-7c0-6.6-4.6-9.9-10.5-9.9H-469v37h19.2c0,0,11.7,0.4,11.7-10.9
		C-438,508.1-437.5,498.9-444.9,498.9z M-461,488.9h10.5c0,0,2.6,0,2.6,3.8s-1.5,4.3-3.2,4.3h-9.9V488.9z M-450.5,512H-461v-10h11
		c0,0,4-0.1,4,5.1C-446,511.5-448.9,512-450.5,512z"/>
	<g>
		<path class="st0" d="M-421.9,492c-14.1,0-14.1,14-14.1,14s-1,13.9,14.1,13.9c0,0,12.5,0.7,12.5-9.7h-6.4c0,0,0.2,3.9-5.9,3.9
			c0,0-6.4,0.4-6.4-6.3h19C-409.2,507.8-407.1,492-421.9,492z M-416.2,503h-12c0,0,0.8-5.6,6.4-5.6
			C-416.1,497.4-416.2,503-416.2,503z"/>
		<rect x="-430.1" y="484.5" class="st0" width="15.3" height="4.6"/>
	</g>
</g>
</svg>
