<?xml version="1.0" encoding="utf-8"?>
<!-- Generator: Adobe Illustrator 16.0.0, SVG Export Plug-In . SVG Version: 6.00 Build 0)  -->
<!DOCTYPE svg PUBLIC "-//W3C//DTD SVG 1.1//EN" "http://www.w3.org/Graphics/SVG/1.1/DTD/svg11.dtd">
<svg version="1.1" id="Layer_1" xmlns="http://www.w3.org/2000/svg" xmlns:xlink="http://www.w3.org/1999/xlink" x="0px" y="0px"
	 width="48px" height="48px" viewBox="0 0 48 48" enable-background="new 0 0 48 48" xml:space="preserve">
<path fill="#10BBF1" d="M39.9,31.7V31.6c0-0.1-0.102-0.199-0.2-0.3L32.4,24l7.8-7.8c1.8-1.8,1.8-4.6,0-6.4c-0.9-0.9-2-1.3-3.2-1.3
	S34.6,9,33.8,9.8L26,17.6l-9.3-9.3c-0.4-0.4-1-0.4-1.4,0l-6,6c-0.4,0.4-0.4,1,0,1.4l9.3,9.3l-3.696,3.695
	c-0.296,0.298-0.371,0.703-0.228,1.057c-1.093,0.118-2.097,0.574-2.872,1.35c-1.3,1.299-1.4,2.799-1.4,3.899
	c0,0.7-0.8,0.899-1.4,0.899c-0.4,0-0.8,0.301-0.9,0.601c-0.2,0.399-0.1,0.8,0.2,1.101c1.5,1.5,3.5,2.299,5.6,2.299
	c1.9,0,3.6-0.698,4.8-1.898c0.729-0.729,1.179-1.727,1.331-2.82c0.188,0.133,0.406,0.217,0.569,0.217c0.2,0,0.5-0.101,0.7-0.301
	L25,31.4l7.3,7.3c0.101,0.1,0.2,0.2,0.3,0.2h0.2l7,1H39.9c0.3,0,0.5-0.102,0.699-0.301s0.301-0.5,0.301-0.801l-1-7
	C39.9,31.7,39.9,31.7,39.9,31.7z M11.4,15l4.6-4.6l8.6,8.6L20,23.6L11.4,15z M17.304,36.701c-0.8,0.8-2,1.3-3.3,1.3
	c-0.9,0-1.9-0.2-2.7-0.601c0.7-0.699,1.1-1.601,1.1-2.399s0.1-1.7,0.8-2.399c1.1-1.101,3-1.101,4.1,0c0.5,0.5,0.8,1.199,0.8,2
	C18.104,35.4,17.804,36.102,17.304,36.701z M20.604,32.996l-3.6-3.6L35.2,11.2c1-1,2.6-1,3.6,0c0.5,0.5,0.7,1.1,0.7,1.8
	s-0.3,1.3-0.7,1.8L20.604,32.996z M33.487,37.1L26.4,30l4.6-4.6l7.049,6.992L38.8,37.8L33.487,37.1z"/>
<path fill="none" stroke="#10BBF1" stroke-miterlimit="10" d="M22.671,21.65c-2.09-2.09-4.181-4.181-6.271-6.271"/>
<path fill="none" stroke="#10BBF1" stroke-miterlimit="10" d="M13.4,18.65c2.09-2.09,4.181-4.181,6.271-6.271"/>
<line fill="none" stroke="#10BBF1" stroke-miterlimit="10" x1="33.06" y1="37.854" x2="39.331" y2="31.582"/>
<path fill="none" stroke="#10BBF1" stroke-miterlimit="10" d="M35.947,34.926c-2.502-2.502-5.003-5.003-7.505-7.505"/>
<path fill="none" stroke="#10BBF1" stroke-miterlimit="10" d="M26.068,31.642c-2.501-2.502-5.002-5.003-7.504-7.505"/>
</svg>
