<?xml version="1.0" encoding="utf-8"?>
<!-- Generator: Adobe Illustrator 16.0.0, SVG Export Plug-In . SVG Version: 6.00 Build 0)  -->
<!DOCTYPE svg PUBLIC "-//W3C//DTD SVG 1.1//EN" "http://www.w3.org/Graphics/SVG/1.1/DTD/svg11.dtd">
<svg version="1.1" id="Layer_1" xmlns="http://www.w3.org/2000/svg" xmlns:xlink="http://www.w3.org/1999/xlink" x="0px" y="0px"
	 width="48px" height="48px" viewBox="0 0 48 48" enable-background="new 0 0 48 48" xml:space="preserve">
<path fill="#24BAED" d="M42,8H6c-0.6,0-1,0.4-1,2v32c0-0.4,0.4,0,1,0h36c0.6,0,1-0.4,1,0V10C43,8.4,42.6,8,42,8z M41,40H7V15h34V40z
	 M41,13H7v-3h34V13z"/>
<g>
	<path fill="#24BAED" d="M37,27v3H11v-3H37 M37,26H11c-0.552,0-1,0.447-1,1v3c0,0.553,0.448,1,1,1h26c0.553,0,1-0.447,1-1v-3
		C38,26.447,37.553,26,37,26L37,26z"/>
</g>
<g>
	<path fill="#24BAED" d="M37,34v3H11v-3H37 M37,33H11c-0.552,0-1,0.447-1,1v3c0,0.553,0.448,1,1,1h26c0.553,0,1-0.447,1-1v-3
		C38,33.447,37.553,33,37,33L37,33z"/>
</g>
<g>
	<path fill="#24BAED" d="M16,18v5h-5v-5H16 M16,17h-5c-0.552,0-1,0.448-1,1v5c0,0.552,0.448,1,1,1h5c0.552,0,1-0.448,1-1v-5
		C17,17.448,16.552,17,16,17L16,17z"/>
</g>
<g>
	<path fill="#24BAED" d="M37,18v5H20v-5H37 M37,17H20c-0.552,0-1,0.448-1,1v5c0,0.552,0.448,1,1,1h17c0.553,0,1-0.448,1-1v-5
		C38,17.448,37.553,17,37,17L37,17z"/>
</g>
<line fill="none" stroke="#24BAED" stroke-linecap="round" stroke-linejoin="round" stroke-miterlimit="10" x1="37.5" y1="8.62" x2="37.5" y2="14"/>
</svg>
