<?xml version="1.0" encoding="utf-8"?>
<!-- Generator: Adobe Illustrator 16.0.0, SVG Export Plug-In . SVG Version: 6.00 Build 0)  -->
<!DOCTYPE svg PUBLIC "-//W3C//DTD SVG 1.1//EN" "http://www.w3.org/Graphics/SVG/1.1/DTD/svg11.dtd">
<svg version="1.1" id="Layer_1" xmlns="http://www.w3.org/2000/svg" xmlns:xlink="http://www.w3.org/1999/xlink" x="0px" y="0px"
	 width="24px" height="24px" viewBox="0 0 24 24" enable-background="new 0 0 24 24" xml:space="preserve">
<g>
	<path fill="#FFFFFF" d="M21.195,3.016c0.002-0.029,0.002-0.063,0-0.103L21.178,2.77c-0.011-0.063-0.025-0.126-0.051-0.196
		l-0.098-0.22c-0.021-0.035-0.043-0.069-0.064-0.103l-0.4-0.37c-0.019-0.012-0.031-0.019-0.033-0.019l0,0l-0.225-0.096
		c-0.104-0.033-0.209-0.053-0.367-0.061l-0.102,0.002c-0.054,0.003-0.107,0.011-0.253,0.04c-0.051,0.014-0.097,0.03-0.146,0.049
		L2.362,11.223c-0.397,0.219-0.652,0.638-0.664,1.094c-0.01,0.455,0.223,0.885,0.607,1.123l4.712,2.926l0.951,4.197
		c0.102,0.451,0.44,0.813,0.854,0.938c0.417,0.143,0.942,0.034,1.276-0.284l2.208-2.069l4.734,2.291
		c0.174,0.084,0.367,0.127,0.56,0.127c0.211,0,0.422-0.053,0.612-0.155c0.354-0.195,0.603-0.554,0.657-0.958L21.174,3.25l0.04-0.102
		L21.195,3.016z M17.512,6.341l-5.868,10.933L9.537,19.25l-0.801-3.537L17.512,6.341z M8.062,14.869L4.04,12.374l13.174-7.28
		L8.062,14.869z M18.995,5.837l-1.828,13.638l-4.358-2.108L18.995,5.837z"/>
</g>
</svg>
