<?xml version="1.0" encoding="utf-8"?>
<!-- Generator: Adobe Illustrator 16.0.0, SVG Export Plug-In . SVG Version: 6.00 Build 0)  -->
<!DOCTYPE svg PUBLIC "-//W3C//DTD SVG 1.1//EN" "http://www.w3.org/Graphics/SVG/1.1/DTD/svg11.dtd">
<svg version="1.1" id="Layer_1" xmlns="http://www.w3.org/2000/svg" xmlns:xlink="http://www.w3.org/1999/xlink" x="0px" y="0px"
	 width="24px" height="24px" viewBox="0 0 24 24" enable-background="new 0 0 24 24" xml:space="preserve">
<g>
	<path fill="#FFFFFF" d="M9.736,10.854c0,0,1.681-0.12,1.681-2.102S10.036,5.78,8.264,5.78H2.5v11.109h5.764
		c0,0,3.514,0.12,3.514-3.272C11.807,13.616,11.958,10.854,9.736,10.854z M4.902,7.851h3.153c0,0,0.78,0,0.78,1.141
		s-0.45,1.291-0.961,1.291H4.902V7.851z M8.055,14.787H4.902v-3.002h3.303c0,0,1.2-0.031,1.2,1.531
		C9.406,14.637,8.536,14.787,8.055,14.787z"/>
	<g>
		<path fill="#FFFFFF" d="M16.641,8.782c-4.232,0-4.232,4.204-4.232,4.204s-0.301,4.174,4.232,4.174c0,0,3.754,0.21,3.754-2.913
			h-1.922c0,0,0.061,1.172-1.771,1.172c0,0-1.92,0.12-1.92-1.892h5.703C20.455,13.526,21.084,8.782,16.641,8.782z M18.412,12.115
			h-3.602c0,0,0.18-1.801,1.891-1.801C18.383,10.283,18.412,12.115,18.412,12.115z"/>
		<rect x="14.24" y="6.38" fill="#FFFFFF" width="4.473" height="1.471"/>
	</g>
</g>
</svg>
