<?xml version="1.0" encoding="utf-8"?>
<!-- Generator: Adobe Illustrator 16.0.0, SVG Export Plug-In . SVG Version: 6.00 Build 0)  -->
<!DOCTYPE svg PUBLIC "-//W3C//DTD SVG 1.1//EN" "http://www.w3.org/Graphics/SVG/1.1/DTD/svg11.dtd">
<svg version="1.1" id="Layer_1" xmlns="http://www.w3.org/2000/svg" xmlns:xlink="http://www.w3.org/1999/xlink" x="0px" y="0px"
	 width="24px" height="24px" viewBox="0 0 24 24" enable-background="new 0 0 24 24" xml:space="preserve">
<path fill="#FFFFFF" d="M18,3H6C4.3,3,3,4.3,3,6v12c0,1.7,1.3,3,3,3h12c1.7,0,3-1.3,3-3V6C21,4.3,19.7,3,18,3z M19,18
	c0,0.598-0.402,1-1,1h-3.72v-5.492h1.705l0.222-2.118H14.28v-1.245c0-0.467,0.313-0.577,0.536-0.577h1.358V7.514l-1.871-0.007
	c-2.08,0-2.551,1.533-2.551,2.513v1.371H10.55v2.118h1.202V19H6c-0.598,0-1-0.402-1-1V6c0-0.598,0.402-1,1-1h12c0.598,0,1,0.402,1,1
	V18z"/>
</svg>
