<?xml version="1.0" encoding="utf-8"?>
<!-- Generator: Adobe Illustrator 16.0.0, SVG Export Plug-In . SVG Version: 6.00 Build 0)  -->
<!DOCTYPE svg PUBLIC "-//W3C//DTD SVG 1.1//EN" "http://www.w3.org/Graphics/SVG/1.1/DTD/svg11.dtd">
<svg version="1.1" id="Layer_1" xmlns="http://www.w3.org/2000/svg" xmlns:xlink="http://www.w3.org/1999/xlink" x="0px" y="0px"
	 width="24px" height="24px" viewBox="0 0 24 24" enable-background="new 0 0 24 24" xml:space="preserve">
<path fill="#FFFFFF" d="M6.882,19.967H3.04V7.158h3.842V19.967z M20.975,19.967h-3.843v-6.844c0-1.782-0.637-2.67-1.896-2.67
	c-0.998,0-1.631,0.497-1.949,1.493v8.021H9.445c0,0,0.051-11.529,0-12.809h3.448l0.234,2.562h-0.334
	c0.788-1.281,2.047-2.149,3.771-2.149c1.313,0,2.377,0.365,3.188,1.283c0.815,0.917,1.222,2.149,1.222,3.88V19.967z"/>
<ellipse fill="#FFFFFF" cx="4.96" cy="3.954" rx="1.986" ry="1.922"/>
</svg>
