<?xml version="1.0" encoding="utf-8"?>
<!-- Generator: Adobe Illustrator 16.0.0, SVG Export Plug-In . SVG Version: 6.00 Build 0)  -->
<!DOCTYPE svg PUBLIC "-//W3C//DTD SVG 1.1//EN" "http://www.w3.org/Graphics/SVG/1.1/DTD/svg11.dtd">
<svg version="1.1" id="Layer_1" zoomAndPan="disable"
	 xmlns="http://www.w3.org/2000/svg" xmlns:xlink="http://www.w3.org/1999/xlink" x="0px" y="0px" width="96px" height="96px"
	 viewBox="0 0 96 96" enable-background="new 0 0 96 96" xml:space="preserve">
<g opacity="0.5">
	<g>
		<path d="M36.048,20.341L63.707,48L36.048,75.659l-2.341-2.341L59.025,48L33.707,22.682L36.048,20.341 M36.048,16.098l-2.122,2.122
			l-2.341,2.341l-2.121,2.122l2.121,2.121L54.783,48L31.586,71.197l-2.122,2.121l2.122,2.121l2.341,2.341l2.121,2.121l2.121-2.121
			l27.659-27.659L67.949,48l-2.121-2.121L38.169,18.22L36.048,16.098L36.048,16.098z"/>
	</g>
</g>
<g>
	<polygon fill="#FFFFFF" points="36.048,75.659 33.707,73.318 59.025,48 33.707,22.682 36.048,20.341 63.707,48 	"/>
</g>
</svg>
