<?xml version="1.0" encoding="utf-8"?>
<!-- Generator: Adobe Illustrator 16.0.0, SVG Export Plug-In . SVG Version: 6.00 Build 0)  -->
<!DOCTYPE svg PUBLIC "-//W3C//DTD SVG 1.1//EN" "http://www.w3.org/Graphics/SVG/1.1/DTD/svg11.dtd">
<svg version="1.1" id="icons" xmlns="http://www.w3.org/2000/svg" xmlns:xlink="http://www.w3.org/1999/xlink" x="0px" y="0px"
	 width="44px" height="44px" viewBox="0 0 44 44" enable-background="new 0 0 44 44" xml:space="preserve">
<path fill-rule="evenodd" clip-rule="evenodd" fill="#0D0708" d="M15.271,22.977l11.91-7.386c0.273-0.169,0.554,0.207,0.312,0.421
	L17.409,24.93c-0.101,0.089-0.164,0.212-0.18,0.345l-0.388,3.452c-0.014,0.112-0.171,0.127-0.204,0.02l-1.598-5.148
	C14.967,23.362,15.062,23.107,15.271,22.977z M8.567,22.036l5.518,1.629l2.059,6.534c0.216,0.682,1.08,0.889,1.581,0.378
	l2.853-2.913l5.597,4.108c0.686,0.503,1.66,0.13,1.834-0.702l3.707-17.723c0.182-0.869-0.672-1.592-1.499-1.27L8.504,20.539
	C7.801,20.813,7.844,21.822,8.567,22.036z M22,44C9.85,44,0,34.15,0,22S9.85,0,22,0s22,9.85,22,22S34.15,44,22,44z"/>
</svg>
