<?xml version="1.0" encoding="utf-8"?>
<!-- Generator: Adobe Illustrator 16.0.0, SVG Export Plug-In . SVG Version: 6.00 Build 0)  -->
<!DOCTYPE svg PUBLIC "-//W3C//DTD SVG 1.1//EN" "http://www.w3.org/Graphics/SVG/1.1/DTD/svg11.dtd">
<svg version="1.1" id="shop" xmlns="http://www.w3.org/2000/svg" xmlns:xlink="http://www.w3.org/1999/xlink" x="0px" y="0px"
	 width="256px" height="256px" viewBox="0 0 256 256" enable-background="new 0 0 256 256" xml:space="preserve">
<g>
	<path fill-rule="evenodd" clip-rule="evenodd" fill="#FDEDC5" d="M75.5,206.994l-22-17.025V69.783c0,0,10.896-21.465,28-21.032
		c0,0,76.641-7.937,114,10.015c0,0,2.334,18.794,3,31.048l-10,7.011l-5,55.085l19,10.016l-16,47.072L75.5,206.994z"/>
	<path fill="#8D8064" d="M191.275,156.008l-107.338,0.951l-6.443-6.788l0.006-0.173l106.1,1.965l-0.1-0.053l4.699-51.777
		l0.154-2.122l0.041-0.03l0.105-1.157l10-7.011c-0.004-0.061-0.008-0.125-0.011-0.187C187.59,92.46,171.5,87.998,171.5,87.998l-1-31
		c0,0-3.504,30.311-10,33c-0.013,0.005-0.032,0.015-0.045,0.021c-4.73,0.66-10.945,0.646-16.955-2.021l-0.082-0.449L142.5,59.998
		c0.156,20.852-13.384,27.847-17.696,29.545c-2.36-0.342-4.64-1.001-6.611-2.128l-1.835-21.417
		c-2.691,15.741-13.09,21.186-20.631,23.053c-1.095-0.22-2.222-0.49-3.375-0.812l-1.995-37.241
		c-0.744-1.043-1.466-1.971-2.172-2.814c-4.23,0.314-6.685,0.567-6.685,0.567c-17.104-0.433-28,21.032-28,21.032v120.186l22,17.025
		l0.068,0.002l0.006-0.194l0.361-0.948l110.556-36.522l-5.991,31.667l14-37l-105,3l-3-6l12.188,0.338l96.388-3.324L191.275,156.008z
		"/>
	<path fill-rule="evenodd" clip-rule="evenodd" fill="#FDEDC5" d="M77.5,143.998l-2-66l9,14l-2,51L77.5,143.998z"/>
	<path fill-rule="evenodd" clip-rule="evenodd" fill="#FDEDC5" d="M177.5,135.998v5l-52-4l26-2L177.5,135.998z"/>
	<path fill-rule="evenodd" clip-rule="evenodd" fill="#FDEDC5" d="M179.5,114.998v8l-92-4l45-5L179.5,114.998z"/>
</g>
</svg>
