<?xml version="1.0" encoding="utf-8"?>
<!-- Generator: Adobe Illustrator 16.0.0, SVG Export Plug-In . SVG Version: 6.00 Build 0)  -->
<!DOCTYPE svg PUBLIC "-//W3C//DTD SVG 1.1//EN" "http://www.w3.org/Graphics/SVG/1.1/DTD/svg11.dtd">
<svg version="1.1" id="treasure" xmlns="http://www.w3.org/2000/svg" xmlns:xlink="http://www.w3.org/1999/xlink" x="0px" y="0px"
	 width="256px" height="256px" viewBox="0 0 256 256" enable-background="new 0 0 256 256" xml:space="preserve">
<g>
	<path fill-rule="evenodd" clip-rule="evenodd" fill="#FDEDC5" d="M202.49,171.892c5.9-9.612,11.479-22.448,15.967-39.593
		l-30.843-4.854L205,51.457c-7.531-4.987-19.572-3.85-19.572-3.85l-14.716,77.179l-25.653-4.037c0,0-4.344,14.454-5.359,31.203
		c-4.906-30.585-17.884-77.398-17.884-77.398c-3.979-3.661-8.885-6.185-14.199-7.875c-1.498,1.355-6.596,4.025-6.596,4.025
		s-4.6-3.955-5.512-6.516c-19.066-2.151-38.527,2.667-38.527,2.667c-8.532,4.354-18.949,10.912-18.35,20.531
		c0.516,8.279,4.674,63.139,5.823,78.266c-4.84,1.855-13.004,6.004-18.056,14.125c0,0,17.271,24.57,74.622,28.23l-8.563-12.832
		c0,0,11.711,1.283,15.903,8.982l9.786-8.982c0,0-0.45,6.416-3.67,11.549c0,0,4.892-6.635,13.456-5.133l-6.117,6.416
		c0,0,65.117,3.682,91.748-8.982c0.219-2.158-4.893-8.982-4.893-8.982s9.662,0.91,9.787,5.133c0,0,3.436-3.914,6.115-5.133
		c0,0-0.557,1.586-1.432,5.26c0,0,0.531,0.562,6.461-5.504C229.602,189.799,220.379,180.918,202.49,171.892z"/>
	<g>
		<path fill="#8D8064" d="M75.971,110.668l-0.392-6.334l0.921-0.165l4.516,7.266l6.965-3.646l-5.099-6.14
			c1.427-1.361,2.391-2.702,2.899-4.386c0.484-1.684,0.485-3.761,0.032-6.672c-1.217-1.482-2.8-2.411-4.536-2.965
			s-3.625-0.711-5.307-0.633c-0.804,0.037-1.632,0.1-2.531,0.216c-1.531,0.168-3.45,0.405-5.359,0.86l0.845,22.903L75.971,110.668z
			 M76.626,93.755c1.152,0.092,1.922,0.35,2.603,0.807c0.015,0.854-0.098,1.568-0.362,2.191c-0.245,0.524-0.613,1.006-1.209,1.303
			c-0.596,0.321-1.445,0.458-2.556,0.216l-0.519-4.325C75.357,93.79,76.038,93.709,76.626,93.755z"/>
		<polygon fill="#8D8064" points="98.2,85.568 89.943,86.123 90.312,98.25 91.191,110.328 99.1,109.642 98.991,97.846 		"/>
		<path fill="#8D8064" d="M118.046,86.429c-1.296-0.55-2.755-0.922-4.037-1.156c-1.306-0.232-2.458-0.326-3.117-0.295
			c-0.853,0.04-1.705,0.104-2.604,0.219c-1.556,0.17-3.571,0.435-5.529,0.892l0.879,23.634l7.266-0.313
			c-0.086-1.339-0.162-2.436-0.202-3.289c-0.04-0.854-0.07-1.512-0.117-1.999c-0.051-0.56-0.071-0.999-0.083-1.267
			c0.489,0.002,1.296,0.014,2.148-0.051c0.852-0.064,1.75-0.18,2.45-0.383c0.678-0.129,1.807-0.548,2.94-1.407
			s2.243-2.206,2.931-4.217c0.665-1.985,0.836-4.607,0.113-8.068C120.454,87.759,119.342,86.979,118.046,86.429z M114.397,95.175
			c-0.27,0.501-0.688,0.96-1.383,1.262c-0.694,0.325-1.667,0.419-3.021,0.189l-0.309-4.554c0.792-0.306,1.495-0.436,2.132-0.393
			c1.251,0.113,2.175,0.534,2.922,1.355C114.801,93.885,114.688,94.6,114.397,95.175z"/>
		<path fill="#8D8064" d="M63.259,134.547c3.427-2.792,8.401-4.814,8.401-4.814l-9.285-1.083l-8.97-59.88
			c-7.602,4.292-15.292,10.314-14.774,18.617c0.59,9.468,5.945,79.872,6.112,82.073c-0.02-0.254-0.122-1.605-0.29-3.807
			c-4.84,1.855-13.004,6.004-18.056,14.125c0,0,4.608,6.543,16.943,13.381c8.319-15.248,23.207-32.959,48.876-39.393
			c-17.714,1.591-25.45,4.197-25.45,4.197L63.259,134.547z"/>
		<path fill="#8D8064" d="M168.976,165.688l2.995-14.141c-4.281-15.565-1.701-25.354-1.279-26.764l-25.633-4.033
			c0,0-4.528,15.086-5.414,32.291c-2.929-0.212-6.775-0.39-10.251-0.47c3.731,0.7,7.808,1.896,10.856,3.006
			c8.074,3.055,13.965,7.419,18.125,11.514c-0.01,0.002-0.021,0.004-0.03,0.008c1.054,1.062,1.985,2.102,2.798,3.09
			c0.34,0.346,0.652,0.681,0.969,1.016c0.582,0.618,1.137,1.225,1.636,1.799c6.429-6.446,23.991-5.641,32.62-3.033
			C187.894,166.741,177.113,164.904,168.976,165.688z"/>
		<path fill="#8D8064" d="M186.686,75.657l6.916-0.865l-6.068-3.468l4.631-23.68c-3.84-0.309-6.736-0.037-6.736-0.037l-14.68,76.992
			l6.115,1.283L186.686,75.657z"/>
	</g>
</g>
</svg>
