<?xml version="1.0" encoding="utf-8"?>
<!-- Generator: Adobe Illustrator 16.0.0, SVG Export Plug-In . SVG Version: 6.00 Build 0)  -->
<!DOCTYPE svg PUBLIC "-//W3C//DTD SVG 1.1//EN" "http://www.w3.org/Graphics/SVG/1.1/DTD/svg11.dtd">
<svg version="1.1" id="chest" xmlns="http://www.w3.org/2000/svg" xmlns:xlink="http://www.w3.org/1999/xlink" x="0px" y="0px"
	 width="256px" height="256px" viewBox="0 0 256 256" enable-background="new 0 0 256 256" xml:space="preserve">
<g>
	<path fill-rule="evenodd" clip-rule="evenodd" fill="#FDEDC5" d="M217.5,114.5c-3.311-62.088-60-66-60-66s-51.91,3.504-84,9
		s-35,48-35,48l3,71l65,31l106-21L217.5,114.5z"/>
	<g>
		<path fill-rule="evenodd" clip-rule="evenodd" fill="#8D8064" d="M164.233,135.65c2.746-5.98,6.663-5.916,10.205-3.972
			s4.161,7.34,1.021,10.922l1.021,11.899l-10.205,2l1.021-12.907C167.295,143.593,161.488,141.631,164.233,135.65z"/>
		<path fill-rule="evenodd" clip-rule="evenodd" fill="#8D8064" d="M73.5,57.5c0.376-0.064,0.757-0.128,1.139-0.192
			c14.231,7.297,22.499,20.812,27.296,33.566L113.5,95.5l-9.19,2.506c3.772,12.913,4.19,23.494,4.19,23.494l-0.037,1.659
			l21.465-2.47c-0.202-6.508-2.56-50.735-29.044-66.999c1.602-0.187,3.207-0.369,4.809-0.547
			c8.063,5.78,27.995,24.216,30.873,66.782l58.313-6.708C191,63.688,152.375,52.16,140.654,49.792
			c2.041-0.169,3.939-0.322,5.677-0.459c48.651,11.38,54.58,55.075,55.262,63.112l15.618-1.797c0.117,1.261,0.219,2.539,0.289,3.852
			l-0.254,3.654l-19.382,2.982l-3.679,68.993l-7.086,1.403l3.697-69.309l-37.433,5.759c0.187,4.906,0.544,12.814,1.192,22.56
			c1.111,16.713,21.943,16.654,21.943,16.654c-17.466,2.476-26.987-5.688-30.146-13.594c-2.889-7.232-3.711-17.069-3.899-23.941
			l-9.462,1.456l-0.951,71.322l-7.019,1.391l0.955-71.635l-17.772,2.734l-1.595,72.549l-0.11,0.021l-65-31l-3-71
			C38.5,105.5,41.41,62.996,73.5,57.5z"/>
	</g>
	<g>
		<polygon fill-rule="evenodd" clip-rule="evenodd" fill="#FDEDC5" points="54.5,166.5 83.5,186.5 50.5,168.5 49.5,115.5 
			54.5,117.5 		"/>
		<path fill-rule="evenodd" clip-rule="evenodd" fill="#FDEDC5" d="M66.5,74.5c0,0-12.888,6.259-12,31l-5-2
			C49.5,103.5,48.579,82.44,66.5,74.5z"/>
	</g>
</g>
</svg>
