<?xml version="1.0" encoding="utf-8"?>
<!-- Generator: Adobe Illustrator 16.0.0, SVG Export Plug-In . SVG Version: 6.00 Build 0)  -->
<!DOCTYPE svg PUBLIC "-//W3C//DTD SVG 1.1//EN" "http://www.w3.org/Graphics/SVG/1.1/DTD/svg11.dtd">
<svg version="1.1" id="craft" xmlns="http://www.w3.org/2000/svg" xmlns:xlink="http://www.w3.org/1999/xlink" x="0px" y="0px"
	 width="256px" height="256px" viewBox="0 0 256 256" enable-background="new 0 0 256 256" xml:space="preserve">
<g>
	<path fill-rule="evenodd" clip-rule="evenodd" fill="#FDEDC5" d="M192.5,140.01l25-27l-12.674-15.39
		c4.926-5.809,0.809-10.421-3.326-14.61c-4.459-4.518-10.547-13.342-14-13c-1.341,0.133-2.844,0.767-4.184,1.491L175.5,62.01
		c-11.288,1.491-40,2-40,2l-5,6l23,27c-6.965,6.037-17.483,15.544-28.743,25.844l-11.319-8.167c0.03-0.39,0.062-0.78,0.062-1.177
		c0-3.37-1.122-6.479-3.007-9.021c16.58-30.506-11.563-42.544-21.042-45.625c-0.443-4.053-1.067-7.898-1.951-10.854
		c-2.958-0.25-13,2-13,2l4,34l12-1c0,0,0.044-3.187-0.061-7.769c11.204,2.912,12.061,9.769,12.061,9.769
		c0.523,4.513-1.089,8.952-4.572,13.021c-0.144-0.004-0.284-0.021-0.428-0.021c-6.805,0-12.603,4.123-14.916,9.925
		c-8.549,2.46-18.084,2.075-18.084,2.075c-5.994-5.308-6.503-11.631-6.293-14.864c8.05,3.447,13.293,4.864,13.293,4.864l4-10l-29-19
		l-8,14c2.241,1.358,4.433,2.609,6.553,3.76c-9.354,37.986,22.718,37.421,40.06,34.547c2.934,3.474,7.392,5.693,12.387,5.693
		c0.188,0,0.372-0.021,0.559-0.027l6.52,12.432C85.722,158.838,69.5,174.01,69.5,174.01c9.058,21.17,19,22,19,22l31.155-25.844
		L139.5,208.01c0,0,8.627,0,7-6l-17.526-39.574l14.418-11.961L186.5,179.01c0,0,5.009-1.353,5-8l-38.969-28.117L176.5,123.01
		L192.5,140.01z"/>
	<g>
		<polygon fill-rule="evenodd" clip-rule="evenodd" fill="#8D8064" points="119.655,170.166 126.848,183.883 133.807,173.346 
			128.974,162.436 		"/>
		<polygon fill-rule="evenodd" clip-rule="evenodd" fill="#8D8064" points="143.41,150.486 147.383,153.116 153.47,143.57 
			152.531,142.893 		"/>
		<path fill-rule="evenodd" clip-rule="evenodd" fill="#8D8064" d="M113.913,115.029c-1.193,5.05-4.828,13.152-15.821,14.016
			l6.349,12.106l20.163-18.409L113.913,115.029z"/>
		<path fill-rule="evenodd" clip-rule="evenodd" fill="#8D8064" d="M58.207,95.146l-13.159-6.358
			c-4.803,19.526,1.34,28.865,10.809,32.933l8.227-12.098C58.396,103.728,58.093,97.748,58.207,95.146z"/>
		<path fill-rule="evenodd" clip-rule="evenodd" fill="#8D8064" d="M82.538,107.948c-0.214,0.061-0.428,0.122-0.643,0.179
			c-2.335,5.109-5.679,12.134-7.685,16.322c3.969-0.142,7.781-0.61,11.058-1.158C81.325,117.701,81.376,112.2,82.538,107.948z"/>
		<path fill-rule="evenodd" clip-rule="evenodd" fill="#8D8064" d="M186.046,70.319c-0.921,0.281-1.858,0.71-2.729,1.181
			l21.51,26.119c1.502-1.772,2.164-3.433,2.239-5.004C202.155,89.617,191.102,81.866,186.046,70.319z"/>
		<path fill-rule="evenodd" clip-rule="evenodd" fill="#8D8064" d="M153.5,97.01c-1.101,0.954-2.292,1.997-3.559,3.113
			c3.138,8.271,8.34,29.598,10.018,36.608L176.5,123.01l0.97,1.03l-24.688-27.874L153.5,97.01z"/>
		<circle fill-rule="evenodd" clip-rule="evenodd" fill="#8D8064" cx="97.5" cy="112.01" r="5"/>
	</g>
</g>
</svg>
