<?xml version="1.0" encoding="utf-8"?>
<!-- Generator: Adobe Illustrator 16.0.0, SVG Export Plug-In . SVG Version: 6.00 Build 0)  -->
<!DOCTYPE svg PUBLIC "-//W3C//DTD SVG 1.1//EN" "http://www.w3.org/Graphics/SVG/1.1/DTD/svg11.dtd">
<svg version="1.1" id="classes" xmlns="http://www.w3.org/2000/svg" xmlns:xlink="http://www.w3.org/1999/xlink" x="0px" y="0px"
	 width="256px" height="256px" viewBox="0 0 256 256" enable-background="new 0 0 256 256" xml:space="preserve">
<g>
	<g>
		<path fill-rule="evenodd" clip-rule="evenodd" fill="#FDEDC5" d="M61.552,112.702c-0.143-9.123,8.146-32.992,8.146-32.992
			c-17.086-21.079-27.086-13.35-27.086-13.35c-4.349,13.07,5.751,16.398,5.751,16.398c-0.146-2.857-0.589-7.98,2.964-7.344
			c3.554,0.637,6.568,6.391,6.568,6.391C49.21,94.691,42.422,115.94,42.422,115.94l6.997,18.65l2.045,19.646
			c0,0,15.773,16.807,29.415,24.908c0,0,0.882,7.017-2.046,9.029c-2.929,2.012-4.828-2.787-5.979-5.422
			c0,0-7.268,5.924,2.161,17.112c0,0,11.678,3.105,17.667-22.815c0,0-18.121-17.768-22.087-26.05c0,0-4.915-12.854-6.304-18.738
			C62.9,126.374,61.552,112.702,61.552,112.702z"/>
		<path fill-rule="evenodd" clip-rule="evenodd" fill="#FDEDC5" d="M95.272,142.314l-12.755-1.637l-4.06-5.111l-48.24-1.667
			l1.8,6.369c-7.408-1.59-17.706-10.223-17.706-10.223s11.34-7.335,18.897-8.028l-2.286,5.338l48.681,4.779l3.708-3.624l4.632-0.595
			l-1.199,4.29l4.859-4.071l6.406,0.384l-5.029,6.679L95.272,142.314z"/>
		<path fill-rule="evenodd" clip-rule="evenodd" fill="#FDEDC5" d="M69.698,79.71l22.983,97.337l-2.749,0.3l-23.269-98.55
			L69.698,79.71z"/>
	</g>
	<path fill-rule="evenodd" clip-rule="evenodd" fill="#FDEDC5" d="M181.133,199.258c0,0-10.17-0.332-11.73-5.428
		c0,0,20.955-48.698,22.561-56.987c1.605-8.29-3.434-42.847-0.902-52.465C193.592,74.76,202.764,69.93,214.523,69
		c0,0,8.621,1.112,12.635,3.618s15.68,23.967,14.439,40.706c0,0-11.539,16.606-26.172,17.187c0,0-12.559-4.418-9.023-26.232
		c0,0,5.527-3.645,9.023-1.809c3.498,1.835,4.514,6.332,4.514,6.332s-5.133,10.829,0.902,15.377c0,0,9.939-8.35,11.73-17.187
		c0,0-0.932-10.743-14.439-26.232c0,0-15.762,3.154-18.049,9.95c0,0,1.137,35.864,3.611,46.133
		C203.695,136.843,195.033,168.051,181.133,199.258z"/>
	<path fill-rule="evenodd" clip-rule="evenodd" fill="#FDEDC5" d="M163.5,161l-5.006,15l-15.252,0.305L141.549,200h3.932l-2.002,9
		h-18.017l-2.002-9h3.888l-2.693-23.324L108.444,177l-5.005-16h15.949l-6.939-83c0,0,11.977-20.74,21.021-31
		c0,0,15.779,17.812,22.023,29c0,0-1.236,17.637-2.582,36.843c-0.721,0.555-3.41,2.157-3.41,2.157s2.449,6.882,2.697,8
		c-1.377,19.649-2.662,38-2.662,38H163.5z"/>
	<g>
		<polygon fill="#8D8064" points="103.439,161 108.444,177 111.5,176.939 108.449,161 		"/>
		<path fill="#8D8064" d="M127.347,200L127.347,200h-3.888l2.002,9h3.034C128.496,209,127.418,200.064,127.347,200z"/>
		<path fill="#8D8064" d="M124.654,176.676L127.347,200c0.884-8.848,10.758-17.241,15.729-21.357l0.166-2.338L124.654,176.676z"/>
		<path fill="#8D8064" d="M127.463,161c1.34-4.104,6.005-9,6.005-9V47c-9.044,10.26-21.021,31-21.021,31l6.939,83H127.463z"/>
	</g>
	<g>
		<path fill="#8D8064" d="M220.842,124.179c-6.035-4.549-0.902-15.377-0.902-15.377s-0.201-0.88-0.725-2.021
			c-3.59-0.205-7.398,1.116-7.398,1.116C206.703,124.028,215.143,126.882,220.842,124.179z"/>
		<path fill="#8D8064" d="M232.379,105.812c0.156,0.769,0.193,1.18,0.193,1.18c-1.578,7.786-9.477,15.189-11.336,16.842
			c-1.619,2.164-3.537,4.4-5.814,6.676l0.004,0.001c14.633-0.581,26.172-17.187,26.172-17.187c0-0.002,0-0.004,0-0.006
			C238.123,114.502,234.639,109.817,232.379,105.812z"/>
		<path fill="#8D8064" d="M170.557,191.132c-0.73,1.712-1.154,2.698-1.154,2.698c1.561,5.096,11.73,5.428,11.73,5.428
			c13.9-31.207,22.562-62.415,22.562-62.415c-0.006-0.018-0.01-0.039-0.014-0.057C201.49,143.47,191.045,172.684,170.557,191.132z"
			/>
		<path fill="#8D8064" d="M200.084,90.71c2.287-6.796,18.049-9.95,18.049-9.95c0.752,0.863,1.459,1.708,2.137,2.54
			c-4.029-5.163-7.551-7.968-7.551-7.968C198.332,78.377,194.67,88.9,194.67,88.9c-0.498,21.419,6.455,41.246,8.963,47.663
			C201.203,125.958,200.084,90.71,200.084,90.71z"/>
	</g>
	<path fill="#8D8064" d="M89.681,176.283c-19.881-8.862-27.557-22.771-27.557-22.771c-0.104-2.929-0.722-6.451-1.625-10.17
		c-0.673-2.772-1.506-5.652-2.402-8.479l20.36,0.703l4.06,5.111l12.755,1.637l-2.26-7.021l-35.693-2.827
		c-0.293-0.881-0.589-1.751-0.886-2.606c-3.019-8.685-6.107-15.773-6.107-15.773c1.309-19.357,12.758-33.561,12.758-33.561
		c-5.952-10.354-14.677-12.119-14.677-12.119c-2.229,10.215-6.142,6.393-6.77,5.696c0.86,6.715,6.728,8.657,6.728,8.657
		c-0.146-2.857-0.589-7.98,2.964-7.344c3.554,0.637,6.568,6.391,6.568,6.391C49.21,94.691,42.422,115.94,42.422,115.94l5.938,15.828
		l-16.82-1.31l-0.821,2.686l-15.798-3.48c-0.389,0.241-0.609,0.383-0.609,0.383s10.298,8.633,17.706,10.223l-1.8-6.369l19.191,0.663
		l0.01,0.027l2.045,19.646c0,0,15.773,16.807,29.415,24.908c0,0,0.882,7.017-2.046,9.029c-1.86,1.277-3.303-0.192-4.405-2.11
		c-0.338-0.107-0.546-0.193-0.546-0.193c0.003,3.91,5.284,9.414,9.26,11.1c3.15-2.814,6.601-8.199,9.156-18.361
		c0.092-0.505,0.153-0.851,0.181-1.016l-2.546-0.244L89.681,176.283z"/>
</g>
</svg>
