<?xml version="1.0" encoding="utf-8"?>
<!-- Generator: Adobe Illustrator 16.0.0, SVG Export Plug-In . SVG Version: 6.00 Build 0)  -->
<!DOCTYPE svg PUBLIC "-//W3C//DTD SVG 1.1//EN" "http://www.w3.org/Graphics/SVG/1.1/DTD/svg11.dtd">
<svg version="1.1" id="pvp" xmlns="http://www.w3.org/2000/svg" xmlns:xlink="http://www.w3.org/1999/xlink" x="0px" y="0px"
	 width="256px" height="256px" viewBox="0 0 256 256" enable-background="new 0 0 256 256" xml:space="preserve">
<g>
	<g>
		<path fill-rule="evenodd" clip-rule="evenodd" fill="#FDEDC5" d="M62.894,98.361l87.643,75.961
			c-3.238,4.805-14.164,10.18-14.164,10.18l6.197,6.691c0,0,9.562-2.59,19.01-11.971l21.713,21.197
			c7.057,1.443,8.854-8.428,8.854-8.428l-19.463-23.268c5.686-5.105,10.391-15.131,13.266-20.645l-7.082-10.395
			c0,0-4.092,9.83-11.51,16.018L99.191,63.717c0,0-26.738-7.898-43.379-8.427c0,0,0.607,6.264,1.883,15.129
			c4.608,1.705,10.512,4.554,10.512,4.554s-5.789,1.77-9.393,2.743C59.875,84.23,61.23,91.453,62.894,98.361z"/>
		<path fill-rule="evenodd" clip-rule="evenodd" fill="#FDEDC5" d="M193.031,98.404l-7.168,6.446l-6.996-3.634l2.654,7.498
			l-69.702,62.725c4.381,6.822,7.732,13.193,7.732,13.193l-9.738,11.248c0,0-6.022-7.143-15.469-16.533l-21.713,21.219
			c-7.057,1.443-8.854-8.436-8.854-8.436l19.462-23.291c-5.685-5.111-11.976-10.35-18.576-15.137l12.394-15.934
			c0,0,7.531,5.65,14.949,11.844l64.727-85.888c0,0,26.738-7.906,43.379-8.436C200.113,55.29,197.895,78.196,193.031,98.404z"/>
	</g>
	<g>
		<path fill="#8D8064" d="M173.689,169.926c8.314-9.918,12.26-21.846,12.26-21.846l-0.887-0.938
			c-14.225,26.43-32.883,37.365-40.219,40.836l-4.93-5.221c-0.055-0.027-0.104-0.046-0.156-0.072
			c-1.965,1.117-3.385,1.816-3.385,1.816l6.197,6.691c0,0,8.35-2.395,19.848-11.152l19.885,19.412
			c-10.527-12.053-10.449-23.134-9.564-28.424C173.061,170.664,173.377,170.297,173.689,169.926z"/>
		<path fill="#8D8064" d="M108.876,191.301c-5.403-6.916-19.038-22.817-42.181-40.21c-0.089-0.067,0.09,0.067,0,0l-2.031,2.612
			l17.594,14.262l0.982,0.875c0,0,4.94,8.269-9.584,30.725l20.688-20.217c9.446,9.391,15.469,16.533,15.469,16.533l9.738-11.248
			c0,0-0.532-1.01-1.438-2.639C115.716,185.316,110.957,191.5,108.876,191.301z"/>
		<path fill="#8D8064" d="M141.123,118.967l11.791,15.564l28.688-25.817l-2.656-7.498l6.998,3.634l7.166-6.446
			c4.779-19.855,7.002-42.298,7.078-43.077L141.123,118.967z"/>
		<path fill="#8D8064" d="M157.619,165.887l-4.426-11.246l-2.119-2.183c0.014-0.015,0.025-0.028,0.039-0.042
			c0,0-94.991-97.116-95.301-97.126c0,0,0.607,6.264,1.883,15.129c4.608,1.705,10.512,4.554,10.512,4.554s-5.789,1.77-9.393,2.743
			c1.062,6.514,2.416,13.737,4.08,20.646l41.847,36.338l-1.351,12.604l-1.481,13.831l-0.062,0.066
			c0.017,0.018,0.032,0.035,0.049,0.052l-0.019,0.175l0.098-0.092c5.695,5.879,9.989,11.161,12.997,15.205
			c-0.956-1.602-2.019-3.335-3.152-5.102l7.868-7.08l9.433-8.49l21.355,18.543C154.654,170.154,157.619,165.887,157.619,165.887z"/>
	</g>
</g>
</svg>
