<?xml version="1.0" encoding="utf-8"?>
<!-- Generator: Adobe Illustrator 16.0.0, SVG Export Plug-In . SVG Version: 6.00 Build 0)  -->
<!DOCTYPE svg PUBLIC "-//W3C//DTD SVG 1.1//EN" "http://www.w3.org/Graphics/SVG/1.1/DTD/svg11.dtd">
<svg version="1.1" id="skull" xmlns="http://www.w3.org/2000/svg" xmlns:xlink="http://www.w3.org/1999/xlink" x="0px" y="0px"
	 width="256px" height="256px" viewBox="0 0 256 256" enable-background="new 0 0 256 256" xml:space="preserve">
<g>
	<g>
		<g>
			<path fill="#FDEDC5" d="M170.193,66.152c-48.367-41.429-84.668-4.243-84.668-4.243c-11.102,21.468-13.759,58.345-13.759,58.345
				c4.975,5.309,28.575,16.972,28.575,16.972l4.233,20.156c30.319,9.174,48.685-1.061,48.685-1.061l5.291-20.156
				c7.209-3.135,21.168-21.216,21.168-21.216C178.979,102.788,170.193,66.152,170.193,66.152z M105.924,120.369
				c-13.804-10.024-7.123-28.747-7.123-28.747l30.118,21.105C128.919,112.728,119.729,130.393,105.924,120.369z M157.312,119.717
				c-11.963,8.688-19.929-6.623-19.929-6.623l26.102-18.292C163.484,94.803,169.275,111.029,157.312,119.717z"/>
		</g>
		<path fill-rule="evenodd" clip-rule="evenodd" fill="#FDEDC5" d="M92.519,171.508c0,0,61.07,24.416,71.037,31.252
			c0,0,4.882,6.789,9.688,5.389c4.805-1.402,4.521-3.945,4.305-6.467c0,0,4.902-1.67,6.458-5.389
			c1.556-3.717-5.269-7.932-8.296-7.412c-4.782,0.822-5.068,2.814-5.375,3.244c0,0-54.54-17.006-70.282-30.316
			c0,0-3.268-8.918-8.611-8.621c-5.343,0.297-8.482,3.896-6.457,7.543c0,0-5.768,2.75-3.229,8.623
			C84.293,175.225,92.519,171.508,92.519,171.508z"/>
		<path fill-rule="evenodd" clip-rule="evenodd" fill="#FDEDC5" d="M162.899,171.508c0,0-60.845,24.416-70.774,31.252
			c0.098,0.055-2.522,8.131-7.824,6.436c-4.752-1.521-6.331-4.992-6.116-7.514c0,0-4.759-1.199-4.593-5.229
			c0.291-7.061,12.777-7.098,13.927-4.328c0,0,52.189-17.006,67.874-30.316c0,0,1.792-8.918,7.116-8.621
			c5.323,0.297,12.299,5.135,6.428,10.816c0,0,4.856,0.838,3.214,4.326C169.427,174.113,162.899,171.508,162.899,171.508z"/>
	</g>
	<g>
		<polygon fill="#8D8064" points="140.56,125.558 136.326,122.375 136.326,138.287 141.617,135.105 		"/>
		<polygon fill="#8D8064" points="125.742,136.166 132.093,138.287 132.093,122.375 126.801,125.558 		"/>
		<path fill="#8D8064" d="M104.575,157.383c0.495,0.149,0.978,0.28,1.466,0.42c1.411-9.005,5.943-22.697,5.943-22.697
			c-21.555-3.568-31.751-19.095-31.751-19.095c1.16-16.281,9.254-47.524,11.257-52.018c1.125-1.232,2.303-2.373,3.514-3.442
			l28.621,19.392l-14.772-28.1c6.838-3,13.538-4.46,18.482-5.17c-25.423-1.549-41.81,15.237-41.81,15.237
			c-11.102,21.468-13.759,58.345-13.759,58.345c4.975,5.309,28.575,16.972,28.575,16.972L104.575,157.383z"/>
		<path fill="#8D8064" d="M158.551,136.166c3.249-1.412,7.867-5.861,11.963-10.323c-5.025,3.296-12.814,7.808-18.312,8.202
			c0,0,1.605,9.934,2.168,18.052L158.551,136.166z"/>
		<path fill="#8D8064" d="M179.939,189.949c0.002,0.005,0.003,0.008,0.005,0.014c2.799,6.979-4.297,8.652-4.297,8.652
			c-1.201,5.025-9.668,1.082-9.668,1.082c-5.292-3.363-19.204-9.657-33.317-15.73c-3.613-1.555-7.239-3.095-10.739-4.568
			c-14.526-6.115-26.846-11.068-26.846-11.068s-8.496,1.672-9.669-2.162c-1.172-3.836,3.223-5.408,3.223-5.408
			c-2.165-3.568,1.489-6.993,2.066-7.5c-4.881,0.575-7.642,3.998-5.713,7.471c0,0-5.768,2.75-3.229,8.623
			c2.537,5.871,10.763,2.154,10.763,2.154s10.951,4.377,24.333,9.945c-3.003,1.193-5.939,2.323-8.725,3.371l6.474,2.805
			l-25.97,12.068c0,0-1.626,4.188-4.297,4.326c-2.67,0.139-3.223-4.326-3.223-4.326s-7.282,0.823-5.804-6.931
			c-0.996,0.919-1.652,2.132-1.716,3.687c-0.166,4.029,4.593,5.229,4.593,5.229c-0.215,2.521,1.364,5.992,6.116,7.514
			c5.302,1.695,7.922-6.381,7.824-6.436c3.369-2.32,33.237-15.693,35.649-16.721c15.458,6.56,31.146,13.541,35.782,16.721
			c0,0,4.882,6.789,9.688,5.389c4.805-1.402,4.521-3.945,4.305-6.467c0,0,4.902-1.67,6.458-5.389
			C184.995,193.93,182.596,191.37,179.939,189.949z"/>
		<path fill="#8D8064" d="M162.899,171.508c0,0,6.527,2.605,9.251-3.178c0.834-1.771-0.008-2.857-1.039-3.499
			c-2.408,7.148-11.578,3.499-11.578,3.499l-24.708,10.816l4.558,2.158C152.288,175.924,162.899,171.508,162.899,171.508z"/>
	</g>
</g>
</svg>
