<?xml version="1.0" encoding="utf-8"?>
<!-- Generator: Adobe Illustrator 16.0.0, SVG Export Plug-In . SVG Version: 6.00 Build 0)  -->
<!DOCTYPE svg PUBLIC "-//W3C//DTD SVG 1.1//EN" "http://www.w3.org/Graphics/SVG/1.1/DTD/svg11.dtd">
<svg version="1.1" id="icons" xmlns="http://www.w3.org/2000/svg" xmlns:xlink="http://www.w3.org/1999/xlink" x="0px" y="0px"
	 width="44px" height="44px" viewBox="0 0 44 44" enable-background="new 0 0 44 44" xml:space="preserve">
<g>
	<path fill="#0D0708" d="M11.812,13.176c-0.117-0.059-0.229-0.086-0.33-0.086c-0.283,0-0.482,0.22-0.482,0.588v13.994
		c0,0.375,0.273,0.818,0.609,0.986l5.709,2.854c0.146,0.073,0.285,0.107,0.411,0.107c0.354,0,0.604-0.274,0.604-0.735V16.481
		c0-0.027-0.016-0.052-0.04-0.064L11.812,13.176z"/>
	<path fill="#0D0708" d="M32.933,16.407c-0.004-0.003-0.007-0.007-0.013-0.01l-0.008-0.003l-6.637-3.318
		c-0.045-0.022-0.092-0.038-0.139-0.05C26.076,13.009,26.016,13,25.953,13c-0.254,0-0.506,0.127-0.644,0.35l-3.821,6.209
		l4.795,7.792l6.67-10.838C32.975,16.477,32.965,16.432,32.933,16.407z"/>
	<polygon fill="#0D0708" points="19.385,25.212 25.666,28.354 19.385,18.145 	"/>
	<path fill="#0D0708" d="M31.781,31.411C32.455,31.747,33,31.512,33,30.885V18.442l-6.39,10.383L31.781,31.411z"/>
	<path fill="#0D0708" d="M22,0C9.85,0,0,9.85,0,22s9.85,22,22,22s22-9.85,22-22S34.15,0,22,0z M22,42C10.973,42,2,33.028,2,22
		C2,10.972,10.973,2,22,2s20,8.972,20,20C42,33.028,33.027,42,22,42z"/>
</g>
</svg>
