<?xml version="1.0" encoding="utf-8"?>
<!-- Generator: Adobe Illustrator 16.0.0, SVG Export Plug-In . SVG Version: 6.00 Build 0)  -->
<!DOCTYPE svg PUBLIC "-//W3C//DTD SVG 1.1//EN" "http://www.w3.org/Graphics/SVG/1.1/DTD/svg11.dtd">
<svg version="1.1" id="icons" xmlns="http://www.w3.org/2000/svg" xmlns:xlink="http://www.w3.org/1999/xlink" x="0px" y="0px"
	 width="44px" height="44px" viewBox="0 0 44 44" enable-background="new 0 0 44 44" xml:space="preserve">
<path fill-rule="evenodd" clip-rule="evenodd" fill="#0D0708" d="M16.372,23.683c0-0.962,0.814-1.77,1.786-1.77
	s1.76,0.808,1.76,1.77c0,0.963-0.788,1.744-1.76,1.744S16.372,24.646,16.372,23.683z M26.281,28.812
	c-0.905,0.896-2.302,1.331-4.269,1.331c-0.004,0-0.009,0-0.014,0c-0.004,0-0.009,0-0.014,0c-1.967,0-3.362-0.436-4.267-1.331
	c-0.277-0.275-0.277-0.721,0-0.996c0.277-0.274,0.727-0.274,1.005,0c0.624,0.619,1.691,0.92,3.262,0.92
	c0.005,0,0.01,0.001,0.014,0.001c0.005,0,0.01-0.001,0.014-0.001c1.571,0,2.639-0.301,3.264-0.92c0.278-0.275,0.728-0.274,1.005,0
	C26.558,28.092,26.558,28.537,26.281,28.812z M25.868,25.427c-0.972,0-1.789-0.781-1.789-1.744s0.817-1.77,1.789-1.77
	s1.76,0.807,1.76,1.77S26.84,25.427,25.868,25.427z M30.666,12.573c0.658,0,1.193,0.53,1.193,1.182c0,0.652-0.535,1.183-1.193,1.183
	s-1.194-0.531-1.194-1.183C29.472,13.103,30.008,12.573,30.666,12.573z M35.002,21.767c0-1.708-1.401-3.097-3.125-3.097
	c-0.746,0-1.432,0.261-1.97,0.695c-1.905-1.187-4.323-1.902-6.916-2.053l1.353-4.236l3.716,0.867
	c0.098,1.341,1.229,2.402,2.606,2.402c1.44,0,2.613-1.162,2.613-2.59c0-1.427-1.173-2.589-2.613-2.589
	c-1.008,0-1.884,0.568-2.32,1.398l-4.318-1.007c-0.361-0.084-0.728,0.122-0.839,0.473l-1.68,5.258
	c-2.793,0.067-5.418,0.785-7.464,2.041c-0.53-0.411-1.197-0.658-1.922-0.658c-1.724,0-3.125,1.389-3.125,3.097
	c0,1.056,0.536,1.989,1.353,2.548c-0.034,0.245-0.052,0.492-0.052,0.743c0,2.134,1.253,4.12,3.526,5.59
	c2.18,1.41,5.064,2.187,8.122,2.187s5.942-0.776,8.122-2.187c2.273-1.47,3.526-3.456,3.526-5.59c0-0.229-0.016-0.454-0.044-0.679
	C34.423,23.829,35.002,22.864,35.002,21.767z M22,44C9.85,44,0,34.15,0,22S9.85,0,22,0s22,9.85,22,22S34.15,44,22,44z"/>
</svg>
