<?xml version="1.0" encoding="utf-8"?>
<!-- Generator: Adobe Illustrator 16.0.0, SVG Export Plug-In . SVG Version: 6.00 Build 0)  -->
<!DOCTYPE svg PUBLIC "-//W3C//DTD SVG 1.1//EN" "http://www.w3.org/Graphics/SVG/1.1/DTD/svg11.dtd">
<svg version="1.1" id="icons" xmlns="http://www.w3.org/2000/svg" xmlns:xlink="http://www.w3.org/1999/xlink" x="0px" y="0px"
	 width="44px" height="44px" viewBox="0 0 44 44" enable-background="new 0 0 44 44" xml:space="preserve">
<g>
	<path fill-rule="evenodd" clip-rule="evenodd" fill="#0D0708" d="M22,0C9.85,0,0,9.85,0,22s9.85,22,22,22s22-9.85,22-22
		S34.15,0,22,0z M22,42C10.972,42,2,33.028,2,22C2,10.972,10.972,2,22,2s20,8.972,20,20C42,33.028,33.028,42,22,42z"/>
	<path fill-rule="evenodd" clip-rule="evenodd" fill="#0D0708" d="M30.216,12.078L8.504,20.539c-0.703,0.274-0.66,1.283,0.063,1.497
		l5.518,1.629l2.059,6.534c0.216,0.682,1.08,0.889,1.581,0.378l2.853-2.913l5.597,4.108c0.686,0.503,1.66,0.13,1.834-0.702
		l3.707-17.723C31.896,12.479,31.043,11.756,30.216,12.078z M27.494,16.011L17.409,24.93c-0.101,0.089-0.164,0.212-0.18,0.345
		l-0.388,3.452c-0.014,0.112-0.171,0.127-0.204,0.02l-1.598-5.148c-0.073-0.235,0.022-0.49,0.231-0.621l11.91-7.386
		C27.455,15.421,27.735,15.797,27.494,16.011z"/>
</g>
</svg>
