<?xml version="1.0" encoding="utf-8"?>
<!-- Generator: Adobe Illustrator 16.0.0, SVG Export Plug-In . SVG Version: 6.00 Build 0)  -->
<!DOCTYPE svg PUBLIC "-//W3C//DTD SVG 1.1//EN" "http://www.w3.org/Graphics/SVG/1.1/DTD/svg11.dtd">
<svg version="1.1" id="icons" xmlns="http://www.w3.org/2000/svg" xmlns:xlink="http://www.w3.org/1999/xlink" x="0px" y="0px"
	 width="44px" height="44px" viewBox="0 0 44 44" enable-background="new 0 0 44 44" xml:space="preserve">
<path fill-rule="evenodd" clip-rule="evenodd" fill="#0D0708" d="M30.526,16.846c0.89-0.562,1.573-1.452,1.894-2.513
	c-0.834,0.521-1.754,0.898-2.736,1.102C28.898,14.551,27.779,14,26.539,14c-2.379,0-4.307,2.035-4.307,4.543
	c0,0.356,0.035,0.704,0.109,1.035c-3.58-0.189-6.754-1.997-8.88-4.748c-0.371,0.673-0.583,1.454-0.583,2.286
	c0,1.576,0.76,2.967,1.916,3.783c-0.705-0.023-1.37-0.23-1.951-0.568v0.056c0,2.202,1.483,4.039,3.457,4.455
	c-0.363,0.106-0.742,0.16-1.137,0.16c-0.277,0-0.549-0.027-0.81-0.08c0.547,1.804,2.138,3.119,4.024,3.154
	c-1.476,1.22-3.333,1.945-5.352,1.945c-0.348,0-0.691-0.02-1.027-0.062C13.906,31.247,16.172,32,18.604,32
	c7.925,0,12.257-6.924,12.257-12.929c0-0.198-0.002-0.394-0.012-0.587c0.843-0.641,1.574-1.442,2.15-2.353
	C32.227,16.492,31.396,16.736,30.526,16.846z M22,44C9.85,44,0,34.15,0,22S9.85,0,22,0s22,9.85,22,22S34.15,44,22,44z"/>
</svg>
