<?xml version="1.0" encoding="utf-8"?>
<!-- Generator: Adobe Illustrator 16.0.0, SVG Export Plug-In . SVG Version: 6.00 Build 0)  -->
<!DOCTYPE svg PUBLIC "-//W3C//DTD SVG 1.1//EN" "http://www.w3.org/Graphics/SVG/1.1/DTD/svg11.dtd">
<svg version="1.1" id="Layer_1" xmlns="http://www.w3.org/2000/svg" xmlns:xlink="http://www.w3.org/1999/xlink" x="0px" y="0px"
	 width="512px" height="240px" viewBox="0 0 512 240" enable-background="new 0 0 512 240" xml:space="preserve">
<g>
	<path fill="#FDEDC4" d="M126.259,74.892l-1.312,24.383c-5.066,2.042-9.604,3.062-13.613,3.062c-9.441,0-17.386-3.462-23.837-10.387
		c-7.218-7.764-10.825-18.752-10.825-32.967c0-13.303,3.391-23.981,10.169-32.038c6.778-8.017,15.836-12.027,27.171-12.027
		c3.68,0,7.436,0.693,11.263,2.077v24.11c-3.389-3.39-6.871-5.084-10.442-5.084c-4.666,0-8.31,1.987-10.934,5.958
		c-2.625,4.01-3.937,9.55-3.937,16.621c0,3.426,0.328,6.487,0.984,9.185c0.656,2.697,1.593,4.976,2.815,6.833
		c1.221,1.859,2.725,3.28,4.511,4.264c1.785,0.984,3.827,1.476,6.124,1.476C118.332,80.359,122.285,78.537,126.259,74.892z"/>
	<path fill="#FDEDC4" d="M192.996,100.861h-24.656l-11.263-30.068c-0.109-0.51-0.3-1.185-0.574-2.023
		c-0.273-0.838-0.61-1.84-1.011-3.007l0.165,5.576v29.522h-22.688V16.449h23.344c10.278,0,17.969,2.022,23.071,6.069
		c6.487,5.175,9.731,12.539,9.731,22.087c0,10.206-4.356,17.258-13.065,21.158L192.996,100.861z M155.766,55.539h1.529
		c2.625,0,4.812-1.002,6.562-3.006c1.749-2.004,2.624-4.557,2.624-7.656c0-6.304-3.3-9.457-9.896-9.457h-0.818V55.539z"/>
	<path fill="#FDEDC4" d="M231.843,100.861h-22.798V65.107l-20.939-48.658h23.781l4.101,12.52c0.8,2.442,1.521,4.794,2.159,7.053
		c0.638,2.26,1.211,4.428,1.722,6.506c0.838-3.099,1.567-5.768,2.188-8.009c0.62-2.242,1.166-4.055,1.64-5.44l4.155-12.629h23.617
		l-19.625,48.658V100.861z"/>
	<path fill="#FDEDC4" d="M282.376,100.861h-22.799V16.449h22.086c11.008,0,19.171,2.242,24.496,6.725
		c6.266,5.285,9.4,12.628,9.4,22.033c0,10.241-3.333,17.878-10.005,22.906c-4.558,3.39-11.096,5.085-19.625,5.085h-3.554V100.861z
		 M282.376,54.227l1.037,0.054c2.771,0,4.974-0.846,6.615-2.542c1.64-1.695,2.462-4.018,2.462-6.97c0-2.916-0.803-5.285-2.405-7.108
		c-1.605-1.859-3.647-2.788-6.126-2.788h-1.583V54.227z"/>
	<path fill="#FDEDC4" d="M436.654,58.929c0,12.865-2.937,23.326-8.804,31.38c-5.831,8.019-13.431,12.027-22.799,12.027
		c-8.309,0-15.435-3.08-21.376-9.238c-7.472-7.8-11.207-19.499-11.207-35.1c0-14.942,3.9-26.369,11.7-34.279
		c5.794-5.868,12.666-8.802,20.61-8.802c9.731,0,17.477,3.973,23.234,11.919C433.773,34.783,436.654,45.479,436.654,58.929z
		 M412.979,59.092c0-15.271-2.696-22.908-8.09-22.908c-2.698,0-4.848,2.005-6.45,6.015c-1.568,3.717-2.352,9.185-2.352,16.401
		c0,7.107,0.739,12.62,2.214,16.538c1.476,3.918,3.526,5.877,6.151,5.877c2.695,0,4.774-1.931,6.23-5.795
		C412.215,71.358,412.979,65.981,412.979,59.092z"/>
	<g>
		<path fill="#FDEDC4" d="M356.073,100.861h-23.608v-66.47H319.44V13.442h50.164v20.949h-13.531V100.861z"/>
	</g>
</g>
<g>
	<path fill="#FDEDC4" d="M379.201,123.779c-5.758-7.947-13.501-11.92-23.233-11.92c-7.945,0-14.817,2.936-20.611,8.803
		c-7.8,7.908-11.7,19.336-11.7,34.278c0,15.603,3.736,27.302,11.207,35.1c4.15,4.304,8.884,7.099,14.189,8.395l9.345-21.284
		c-0.833,0.535-1.752,0.806-2.759,0.806c-2.622,0-4.673-1.959-6.151-5.876c-1.474-3.917-2.212-9.432-2.212-16.537
		c0-7.218,0.783-12.685,2.35-16.402c1.605-4.011,3.753-6.013,6.451-6.013c5.396,0,8.094,7.635,8.094,22.907
		c0,3.498-0.2,6.602-0.596,9.32l0.234-0.533l-1.775,33.889c6.756-1.353,12.428-5.166,17.006-11.459
		c5.868-8.056,8.805-18.516,8.805-31.381C387.844,142.422,384.961,131.723,379.201,123.779z"/>
	<path fill="#FDEDC4" d="M6.663,197.805v-84.413h19.681c11.263,0,20.027,3.025,26.297,9.074c8.237,7.91,12.355,18.972,12.355,33.186
		c0,13.996-3.48,24.804-10.441,32.422c-5.942,6.486-14.798,9.731-26.571,9.731H6.663z M29.461,177.41
		c8.163-0.402,12.246-7.436,12.246-21.103c0-6.741-1.039-12.065-3.117-15.964c-2.077-3.936-4.884-5.904-8.418-5.904h-0.711V177.41z"
		/>
	<path fill="#FDEDC4" d="M105.865,113.392h22.799v59.7c0,4.992-0.784,9.038-2.351,12.138c-1.531,3.242-4.083,6.177-7.654,8.801
		c-4.812,3.499-10.661,5.249-17.549,5.249c-7.8,0-14.342-1.932-19.627-5.795c-6.706-4.921-10.06-12.793-10.06-23.619v-56.474h22.799
		v54.451c0,3.681,0.446,6.288,1.338,7.817c0.893,1.532,2.397,2.296,4.511,2.296c2.187,0,3.699-0.71,4.537-2.13
		c0.838-1.494,1.257-4.137,1.257-7.929V113.392z"/>
	<path fill="#FDEDC4" d="M138.27,197.805v-84.413h21.759l11.426,29.632c0.62,1.748,1.321,3.756,2.105,6.014
		c0.783,2.26,1.648,4.866,2.598,7.816l2.35,7.436c-0.839-7.326-1.478-13.593-1.914-18.807c-0.437-5.21-0.656-9.584-0.656-13.119
		v-18.972h21.759v84.413h-21.759l-11.481-31.057c-1.203-3.315-2.288-6.421-3.252-9.321c-0.966-2.895-1.814-5.656-2.542-8.281
		c0.473,5.939,0.82,11.118,1.038,15.525c0.219,4.412,0.328,8.276,0.328,11.593v21.541H138.27z"/>
	<path fill="#FDEDC4" d="M236.544,148.981h31.818v3.499c0,16.256-2.425,27.955-7.272,35.099c-5.284,7.801-13.102,11.7-23.453,11.7
		c-10.169,0-18.151-3.828-23.946-11.481c-5.759-7.726-8.638-18.332-8.638-31.817c0-13.671,2.897-24.438,8.692-32.312
		c5.795-7.873,13.723-11.809,23.782-11.809c13.34,0,23.019,6.963,29.031,20.887l-22.087,8.09c-0.328-2.661-1.085-4.766-2.269-6.313
		c-1.186-1.552-2.67-2.325-4.455-2.325c-6.271,0-9.403,8.619-9.403,25.861c0,7.325,0.69,12.646,2.077,15.962
		c1.385,3.317,3.589,4.976,6.615,4.976c1.202,0,2.297-0.292,3.281-0.874c0.984-0.583,1.813-1.402,2.488-2.462
		c0.673-1.057,1.203-2.34,1.584-3.854c0.383-1.51,0.575-3.199,0.575-5.059h-8.419V148.981z"/>
	<path fill="#FDEDC4" d="M276.994,197.805v-84.413h42.367v19.843h-19.568v12.302h17.546v19.082h-17.546v12.903h19.568v20.283
		H276.994z"/>
	<path fill="#FDEDC4" d="M395.37,197.805v-84.413h21.759l11.425,29.632c0.62,1.748,1.321,3.756,2.104,6.014
		c0.785,2.26,1.65,4.866,2.602,7.816l2.347,7.436c-0.837-7.326-1.474-13.593-1.912-18.807c-0.435-5.21-0.656-9.584-0.656-13.119
		v-18.972h21.761v84.413h-21.761l-11.481-31.057c-1.2-3.315-2.287-6.421-3.253-9.321c-0.966-2.895-1.812-5.656-2.541-8.281
		c0.474,5.939,0.819,11.118,1.037,15.525c0.22,4.412,0.329,8.276,0.329,11.593v21.541H395.37z"/>
	<path fill="#FDEDC4" d="M462.599,195.727v-26.518c4.483,6.125,9.329,9.186,14.54,9.186c1.971,0,3.574-0.521,4.813-1.558
		c1.236-1.039,1.856-2.341,1.856-3.908c0-2.259-1.347-4.466-4.045-6.616l-3.716-2.9c-2.48-1.856-4.594-3.705-6.343-5.548
		c-1.749-1.838-3.172-3.734-4.263-5.686c-1.095-1.949-1.896-3.962-2.407-6.039c-0.512-2.078-0.766-4.267-0.766-6.562
		c0-3.936,0.912-8.056,2.734-12.355c0.91-2.005,1.969-3.836,3.169-5.495c1.205-1.658,2.589-3.125,4.157-4.399
		c4.299-3.646,9.495-5.469,15.581-5.469c5.431,0,10.898,1.441,16.402,4.32v25.804c-1.857-2.877-3.975-5.146-6.343-6.808
		c-2.369-1.655-4.701-2.485-6.997-2.485c-1.75,0-3.191,0.51-4.32,1.529c-1.167,0.986-1.75,2.168-1.75,3.556
		c0,2.259,1.55,4.5,4.647,6.723l3.608,2.68c4.812,3.464,8.256,7.017,10.334,10.661c2.113,3.645,3.169,7.909,3.169,12.791
		c0,8.311-2.532,15.163-7.599,20.559c-5.067,5.394-11.481,8.091-19.244,8.091C474.462,199.279,468.722,198.094,462.599,195.727z"/>
	<path fill="#FDEDC4" d="M371.324,112.695l-44.801,85.11c0,0-0.365,20.645,2.203,27.988c0,0,12.118-5.14,21.299-14.688
		l27.908-94.372L371.324,112.695z"/>
	<polygon fill="#FDEDC4" points="330.166,220.672 378.615,94.254 387.127,97.988 331.185,221.092 	"/>
	<path fill="#FDEDC4" d="M390.43,128.3c-6.005-24.046-31.562-24.965-31.562-24.965l-1.112,6.516
		c22.256,6.559,26.549,20.914,26.549,20.914l6.196-2.178C390.478,128.49,390.454,128.398,390.43,128.3z"/>
</g>
</svg>
